<?xml version="1.0" encoding="UTF-8" standalone="no"?>
<svg
   xmlns:dc="http://purl.org/dc/elements/1.1/"
   xmlns:cc="http://creativecommons.org/ns#"
   xmlns:rdf="http://www.w3.org/1999/02/22-rdf-syntax-ns#"
   xmlns:svg="http://www.w3.org/2000/svg"
   xmlns="http://www.w3.org/2000/svg"
   xmlns:sodipodi="http://sodipodi.sourceforge.net/DTD/sodipodi-0.dtd"
   xmlns:inkscape="http://www.inkscape.org/namespaces/inkscape"
   version="1.1"
   x="0px"
   y="0px"
   viewBox="0 0 99.536819 120"
   xml:space="preserve"
   id="svg2"
   inkscape:version="0.91 r13725"
   sodipodi:docname="offshore.svg"
   width="99.536819"
   height="120"><metadata
     id="metadata20"><rdf:RDF><cc:Work
         rdf:about=""><dc:format>image/svg+xml</dc:format><dc:type
           rdf:resource="http://purl.org/dc/dcmitype/StillImage" /><dc:title></dc:title></cc:Work></rdf:RDF></metadata><defs
     id="defs18" /><sodipodi:namedview
     pagecolor="#ffffff"
     bordercolor="#666666"
     borderopacity="1"
     objecttolerance="10"
     gridtolerance="10"
     guidetolerance="10"
     inkscape:pageopacity="0"
     inkscape:pageshadow="2"
     inkscape:window-width="1920"
     inkscape:window-height="1056"
     id="namedview16"
     showgrid="false"
     fit-margin-top="0"
     fit-margin-left="0"
     fit-margin-right="0"
     fit-margin-bottom="0"
     inkscape:zoom="5.0346667"
     inkscape:cx="14.712821"
     inkscape:cy="39.305138"
     inkscape:window-x="0"
     inkscape:window-y="24"
     inkscape:window-maximized="1"
     inkscape:current-layer="g4" /><g
     id="g4"
     transform="translate(-25.263177,-15)"><path
       d="m 116.2,129.5 c -2.2,2 -5.5,2 -7.7,0 -3.7,-3.3 -9.3,-3.3 -13,0 -2.2,2 -5.5,2 -7.7,0 -3.7,-3.3 -9.3,-3.3 -13,0 -2.2,2 -5.5,2 -7.7,0 -3.7,-3.3 -9.3,-3.3 -13,0 -2.2,2 -5.5,2 -7.7,0 -0.8,-0.7 -2.1,-0.7 -2.8,0.2 -0.7,0.8 -0.7,2.1 0.2,2.8 3.7,3.3 9.3,3.3 13,0 2.2,-2 5.5,-2 7.7,0 3.7,3.3 9.3,3.3 13,0 2.2,-2 5.5,-2 7.7,0 3.7,3.3 9.3,3.3 13,0 2.2,-2 5.5,-2 7.7,0 1.9,1.7 4.2,2.5 6.5,2.5 2.3,0 4.6,-0.8 6.5,-2.5 0.8,-0.7 0.9,-2 0.2,-2.8 -0.8,-0.8 -2.1,-0.9 -2.9,-0.2 z"
       id="path6"
       inkscape:connector-curvature="0"
       style="fill:#dfdff8;fill-opacity:1" /><path
       d="m 122.7,78.8 -16.7,0 0,-4.2 16.7,0 c 1.1,0 2,-0.9 2,-2 0,-1.1 -0.9,-2 -2,-2 l -18.7,0 -18.8,0 c -1.1,0 -2,0.9 -2,2 0,1.1 0.9,2 2,2 l 16.8,0 0,4.2 -26.6,0 -5.1,-43.4 c -0.1,-1 -1,-1.8 -2,-1.8 -1,0 -1.9,0.8 -2,1.8 l -5.1,43.4 -9.9,0 0,-17.2 2.2,0.8 c 0.2,0.1 0.5,0.1 0.7,0.1 0.8,0 1.6,-0.5 1.9,-1.3 0.4,-1 -0.1,-2.2 -1.2,-2.6 l -3.6,-1.4 0,-4.6 c 0,-1.1 -0.9,-2 -2,-2 -1.1,0 -2,0.9 -2,2 l 0,3.1 L 28,48.5 c -1,-0.4 -2.2,0.1 -2.6,1.2 -0.4,1 0.1,2.2 1.2,2.6 l 20.7,7.8 0,18.7 -7.2,0 c -1.1,0 -2,0.9 -2,2 l 0,8.6 c 0,1.1 0.9,2 2,2 l 8.3,0 0,8.6 -8.3,0 c -1.1,0 -2,0.9 -2,2 l 0,8.6 c 0,1.1 0.9,2 2,2 l 8.3,0 0,12.8 c 0,1.1 0.9,2 2,2 1.1,0 2,-0.9 2,-2 l 0,-12.8 16.7,0 0,12.8 c 0,1.1 0.9,2 2,2 1.1,0 2,-0.9 2,-2 l 0,-12.8 16.7,0 0,12.8 c 0,1.1 0.9,2 2,2 1.1,0 2,-0.9 2,-2 l 0,-12.8 16.7,0 0,12.8 c 0,1.1 0.9,2 2,2 1.1,0 2,-0.9 2,-2 l 0,-12.8 8.3,0 c 1.1,0 2,-0.9 2,-2 l 0,-8.6 c 0,-1.1 -0.9,-2 -2,-2 l -8.3,0 0,-8.6 8.3,0 c 1.1,0 2,-0.9 2,-2 l 0,-8.6 c -0.1,-1.1 -1,-2 -2.1,-2 z m -54.4,-26 1.5,12.6 -3,0 1.5,-12.6 z m -2,16.6 3.9,0 1.1,9.4 -6.1,0 1.1,-9.4 z m -13.9,22 16.7,0 0,8.6 -16.7,0 0,-8.6 z m 37.3,0 0,8.6 -16.6,0 0,-8.6 16.6,0 z m 31,17.3 -78.6,0 0,-4.6 78.6,0 0,4.6 z m -10.3,-8.6 -16.7,0 0,-8.6 16.7,0 0,8.6 z m 10.3,-12.7 -78.6,0 0,-4.6 20.9,0 10.6,0 47.1,0 0,4.6 z"
       id="path8"
       inkscape:connector-curvature="0"
       style="fill:#dfdff8;fill-opacity:1" /><path
       d="m 68.3,31 c 1.7,0 3.3,-0.8 4.2,-2.2 1,-1.4 1.2,-3.2 0.6,-4.8 l -2.9,-7.7 c -0.3,-0.8 -1,-1.3 -1.9,-1.3 -0.9,0 -1.6,0.5 -1.9,1.3 L 63.5,24 c -0.6,1.6 -0.4,3.4 0.6,4.8 0.9,1.3 2.5,2.2 4.2,2.2 z m -1.1,-5.6 1.1,-2.8 1.1,2.8 c 0.2,0.5 0,0.9 -0.1,1.1 -0.1,0.1 -0.4,0.5 -1,0.5 -0.5,0 -0.8,-0.3 -0.9,-0.5 -0.2,-0.2 -0.4,-0.6 -0.2,-1.1 z"
       id="path10"
       inkscape:connector-curvature="0"
       style="fill:#dfdff8;fill-opacity:1" /></g></svg>